<svg width="120" height="40" viewBox="0 0 120 40" fill="none" xmlns="http://www.w3.org/2000/svg">
<path d="M28.3233 21.465C31.9019 31.6285 20.2302 34.2944 17.9503 34.6874C15.6707 34.2944 3.82861 30.9594 7.81248 21.465C9.33797 17.8294 15.0099 9.44249 17.9503 5C20.8808 9.30622 26.4784 16.2251 28.3233 21.465Z" fill="#1C2B3A"/>
<path d="M17.9507 16.0563C16.9249 16.0564 16.0933 16.9277 16.0933 18.0026C16.0933 19.0775 16.9248 19.9488 17.9507 19.9489C18.9766 19.9489 19.8081 19.0775 19.8081 18.0026C19.8081 16.9276 18.9766 16.0563 17.9507 16.0563ZM17.9507 19.9489V16.0563M17.9507 19.9489V16.0563" fill="#D4797A" stroke="#D4797A" stroke-width="8"/>
<path d="M17.9536 18.8855C20.107 19.7192 22.266 21.7518 22.2661 25.0906C22.2661 28.417 20.2769 30.3035 17.9614 31.282C16.0841 30.4082 13.6343 28.3548 13.6343 25.0906C13.6344 21.7641 15.8574 19.7248 17.9536 18.8855Z" stroke="#2BA5A5" stroke-width="1.5"/>
<path d="M38.1055 13.2422V30H36.875V13.2422H38.1055ZM49.6016 13.2422L41.6211 21.1758L49.8828 30H48.043L40.3906 21.5859V20.8594L47.9141 13.2422H49.6016ZM63.8281 30V13.2422H70.7422C73.7734 13.2422 75.2891 14.582 75.2891 17.2617C75.2891 19.582 73.6445 21.2266 70.3555 22.1953L76.0156 30H74.3281L68.7617 22.2305V21.3984C72.1992 20.8906 73.918 19.543 73.918 17.3555C73.918 15.3398 72.793 14.332 70.543 14.332H65.0586V30H63.8281ZM89.9141 29.4141V28.125C91.6719 28.75 93.6094 29.0625 95.7266 29.0625C99.2344 29.0625 100.988 27.7344 100.988 25.0781C100.988 23.125 99.8477 22.1484 97.5664 22.1484H94.1211C91.0039 22.1484 89.4453 20.7422 89.4453 17.9297C89.4453 14.7266 91.7305 13.125 96.3008 13.125C98.1758 13.125 99.9922 13.3594 101.75 13.8281V15C99.9922 14.4531 98.1758 14.1797 96.3008 14.1797C92.5508 14.1797 90.6758 15.4297 90.6758 17.9297C90.6758 19.9609 91.8242 20.9766 94.1211 20.9766H97.5664C100.668 20.9766 102.219 22.3438 102.219 25.0781C102.219 28.4375 100.055 30.1172 95.7266 30.1172C93.6094 30.1172 91.6719 29.8828 89.9141 29.4141Z" fill="#1C2B3A"/>
<circle cx="55" cy="21" r="2" fill="black"/>
<circle cx="83" cy="21" r="2" fill="black"/>
</svg>
