<svg width="512" height="512" viewBox="0 0 512 512" fill="none" xmlns="http://www.w3.org/2000/svg">
<path d="M410.881 280.226C464.397 432.217 289.851 472.084 255.756 477.961C221.666 472.084 44.5733 422.21 104.15 280.226C126.963 225.858 211.785 100.435 255.756 34C299.581 98.3976 383.291 201.867 410.881 280.226Z" fill="#1C2B3A"/>
<path d="M255.759 203.342C268.718 203.342 279.538 214.405 279.538 228.449C279.538 242.494 268.718 253.557 255.759 253.557C242.8 253.557 231.98 242.494 231.979 228.449C231.979 214.405 242.8 203.342 255.759 203.342Z" fill="#D4797A" stroke="#D4797A" stroke-width="8"/>
<path d="M255.8 237.097C289.69 249.647 324.52 281.539 324.521 334.45C324.521 387.241 292.236 416.822 255.865 431.676C226.862 418.731 186.997 386.634 186.997 334.45C186.997 281.648 222.905 249.696 255.8 237.097Z" stroke="#2BA5A5" stroke-width="14"/>
</svg>
