<svg width="48" height="48" viewBox="0 0 48 48" fill="none" xmlns="http://www.w3.org/2000/svg">
<path d="M38.4488 26.7391C43.391 40.7755 27.2717 44.4572 24.1229 45C20.9747 44.4572 4.62012 39.8514 10.1221 26.7391C12.2289 21.7182 20.0622 10.1353 24.1229 4C28.1702 9.94714 35.9008 19.5026 38.4488 26.7391Z" fill="#1C2B3A"/>
<path d="M25.5581 21.958C25.5579 22.5045 25.0896 23.2695 24.1235 23.2695C23.2178 23.2695 22.7499 22.5969 22.6948 22.0625L22.689 21.958C22.689 21.4115 23.1573 20.6455 24.1235 20.6455C25.0898 20.6455 25.5581 21.4115 25.5581 21.958Z" fill="#D4797A" stroke="#D4797A" stroke-width="8"/>
<path d="M24.1274 22.8667C27.2161 24.0239 30.3696 26.9334 30.3696 31.7466C30.3696 36.5451 27.4533 39.2438 24.1382 40.6108C21.4813 39.4127 17.8765 36.4843 17.8765 31.7466C17.8765 26.9451 21.127 24.0292 24.1274 22.8667Z" stroke="#2BA5A5" stroke-width="1.5"/>
</svg>
